<?xml version="1.0" encoding="UTF-8" standalone="no"?>
<!-- Created with Inkscape (http://www.inkscape.org/) -->

<svg
   xmlns:dc="http://purl.org/dc/elements/1.1/"
   xmlns:cc="http://creativecommons.org/ns#"
   xmlns:rdf="http://www.w3.org/1999/02/22-rdf-syntax-ns#"
   xmlns:svg="http://www.w3.org/2000/svg"
   xmlns="http://www.w3.org/2000/svg"
   xmlns:sodipodi="http://sodipodi.sourceforge.net/DTD/sodipodi-0.dtd"
   xmlns:inkscape="http://www.inkscape.org/namespaces/inkscape"
   width="499.65073"
   height="252.71861"
   id="svg2"
   version="1.1"
   inkscape:version="0.48.2 r9819"
   sodipodi:docname="New document 1">
  <defs
     id="defs4">
    <marker
       inkscape:stockid="Arrow2Lend"
       orient="auto"
       refY="0"
       refX="0"
       id="Arrow2Lend"
       style="overflow:visible">
      <path
         id="path3980"
         style="font-size:12px;fill-rule:evenodd;stroke-width:0.625;stroke-linejoin:round"
         d="M 8.7185878,4.0337352 -2.2072895,0.01601326 8.7185884,-4.0017078 c -1.7454984,2.3720609 -1.7354408,5.6174519 -6e-7,8.035443 z"
         transform="matrix(-1.1,0,0,-1.1,-1.1,0)"
         inkscape:connector-curvature="0" />
    </marker>
    <marker
       inkscape:stockid="Arrow2Lend"
       orient="auto"
       refY="0"
       refX="0"
       id="Arrow2Lend-4"
       style="overflow:visible">
      <path
         inkscape:connector-curvature="0"
         id="path3980-5"
         style="font-size:12px;fill-rule:evenodd;stroke-width:0.625;stroke-linejoin:round"
         d="M 8.7185878,4.0337352 -2.2072895,0.01601326 8.7185884,-4.0017078 c -1.7454984,2.3720609 -1.7354408,5.6174519 -6e-7,8.035443 z"
         transform="matrix(-1.1,0,0,-1.1,-1.1,0)" />
    </marker>
    <marker
       inkscape:stockid="Arrow2Lend"
       orient="auto"
       refY="0"
       refX="0"
       id="Arrow2Lend-1"
       style="overflow:visible">
      <path
         inkscape:connector-curvature="0"
         id="path3980-7"
         style="font-size:12px;fill-rule:evenodd;stroke-width:0.625;stroke-linejoin:round"
         d="M 8.7185878,4.0337352 -2.2072895,0.01601326 8.7185884,-4.0017078 c -1.7454984,2.3720609 -1.7354408,5.6174519 -6e-7,8.035443 z"
         transform="matrix(-1.1,0,0,-1.1,-1.1,0)" />
    </marker>
  </defs>
  <sodipodi:namedview
     id="base"
     pagecolor="#ffffff"
     bordercolor="#666666"
     borderopacity="1.0"
     inkscape:pageopacity="0.0"
     inkscape:pageshadow="2"
     inkscape:zoom="0.65661805"
     inkscape:cx="226.6901"
     inkscape:cy="-80.814592"
     inkscape:document-units="px"
     inkscape:current-layer="layer1"
     showgrid="false"
     inkscape:window-width="1600"
     inkscape:window-height="881"
     inkscape:window-x="-4"
     inkscape:window-y="-4"
     inkscape:window-maximized="1"
     fit-margin-top="0"
     fit-margin-left="0"
     fit-margin-right="0"
     fit-margin-bottom="0" />
  <metadata
     id="metadata7">
    <rdf:RDF>
      <cc:Work
         rdf:about="">
        <dc:format>image/svg+xml</dc:format>
        <dc:type
           rdf:resource="http://purl.org/dc/dcmitype/StillImage" />
        <dc:title></dc:title>
      </cc:Work>
    </rdf:RDF>
  </metadata>
  <g
     inkscape:label="Layer 1"
     inkscape:groupmode="layer"
     id="layer1"
     transform="translate(-145.35714,-192.64789)">
    <path
       sodipodi:type="arc"
       style="stroke-width:4;stroke-miterlimit:4;stroke-dasharray:none"
       id="path2985"
       sodipodi:cx="128.57143"
       sodipodi:cy="182.36218"
       sodipodi:rx="14.285714"
       sodipodi:ry="12.857142"
       d="m 142.85714,182.36218 c 0,7.10081 -6.39593,12.85715 -14.28571,12.85715 -7.88979,0 -14.28572,-5.75634 -14.28572,-12.85715 0,-7.1008 6.39593,-12.85714 14.28572,-12.85714 7.88978,0 14.28571,5.75634 14.28571,12.85714 z"
       transform="matrix(0.14,0,0,0.15555556,271.35714,178.46408)" />
    <path
       style="fill:#c85900;fill-opacity:1;stroke:#000000;stroke-width:1px;stroke-linecap:butt;stroke-linejoin:miter;stroke-opacity:1"
       d="M 145.85714,369.79075 263,344.07647 290.85714,408.36218 238,376.21932 z"
       id="path2993"
       inkscape:connector-curvature="0" />
    <path
       sodipodi:type="inkscape:offset"
       inkscape:radius="0"
       inkscape:original="M 66.03125 225.5625 L 65.375 226.3125 C 79.780662 238.58367 89.497864 255.1531 101.21875 269.96875 L 101.25 270.03125 L 101.3125 270.0625 C 111.38292 277.36759 124.3093 275.42503 135.65625 274.75 C 145.20424 274.07499 154.73792 275.97536 164.34375 276.8125 C 164.35405 276.8134 164.3647 276.8116 164.375 276.8125 C 177.20193 278.34512 189.97634 280.34123 202.78125 282.15625 L 202.9375 281.15625 C 190.13125 279.34104 177.32942 277.34842 164.46875 275.8125 L 164.4375 275.8125 C 154.89467 274.98311 145.32858 273.06178 135.59375 273.75 C 124.1946 274.42814 111.60348 276.29726 101.9375 269.3125 C 101.9256 269.3035 101.91805 269.28985 101.90625 269.28125 C 90.280375 254.56564 80.572577 237.94923 66.03125 225.5625 z "
       style="font-size:medium;font-style:normal;font-variant:normal;font-weight:normal;font-stretch:normal;text-indent:0;text-align:start;text-decoration:none;line-height:normal;letter-spacing:normal;word-spacing:normal;text-transform:none;direction:ltr;block-progression:tb;writing-mode:lr-tb;text-anchor:start;baseline-shift:baseline;color:#000000;fill:#000000;fill-opacity:1;stroke:none;stroke-width:1px;marker:none;visibility:visible;display:inline;overflow:visible;enable-background:accumulate;font-family:Sans;-inkscape-font-specification:Sans"
       id="path3103"
       d="m 66.03125,225.5625 -0.65625,0.75 c 14.405662,12.27117 24.122864,28.8406 35.84375,43.65625 l 0.0312,0.0625 0.0625,0.0312 c 10.07042,7.30509 22.9968,5.36253 34.34375,4.6875 9.54799,-0.67501 19.08167,1.22536 28.6875,2.0625 0.0103,9e-4 0.0209,-9e-4 0.0312,0 12.82693,1.53262 25.60134,3.52873 38.40625,5.34375 l 0.15625,-1 c -12.80625,-1.81521 -25.60808,-3.80783 -38.46875,-5.34375 l -0.0312,0 c -9.54283,-0.82939 -19.10892,-2.75072 -28.84375,-2.0625 -11.39915,0.67814 -23.99027,2.54726 -33.65625,-4.4375 -0.0119,-0.009 -0.0195,-0.0226 -0.0312,-0.0312 -11.625875,-14.71561 -21.333673,-31.33202 -35.875,-43.71875 z"
       transform="translate(88.41964,26)" />
    <path
       style="stroke-width:4;stroke-miterlimit:4;stroke-dasharray:none"
       d="m 457.11394,192.68433 c 0.28634,0.93633 0.62872,-0.254 0,0 z m 0.125,0.1875 c -0.10364,0.0325 0.0429,0.0577 0,0 z"
       id="path2985-1"
       inkscape:connector-curvature="0" />
    <g
       id="g3944"
       transform="translate(-10.397407,14.553664)"
       style="stroke:#000000;stroke-opacity:1">
      <path
         d="m 478.25,237.4375 a 9.5287037,9.5287037 0 0 0 -7.34375,3.40625 L 470.25,241.625 A 9.5287037,9.5287037 0 0 0 471.34375,255 c 12.78757,10.89283 22.25045,26.7891 34.53125,42.3125 a 9.5287037,9.5287037 0 0 0 0.71875,0.84375 l 0.0625,0.0625 a 9.5287037,9.5287037 0 0 0 1.21875,1 c 0.0391,0.0284 0.0858,0.0343 0.125,0.0625 a 9.5287037,9.5287037 0 0 0 0.15625,0.125 9.5287037,9.5287037 0 0 0 1,0.59375 c 0.0197,0.0131 0.0428,0.0182 0.0625,0.0312 13.53809,8.94718 28.80304,6.27216 39.15625,5.65625 a 9.5287037,9.5287037 0 0 0 0.125,0 c 7.85982,-0.55567 16.86863,1.16565 27.1875,2.0625 a 9.5287037,9.5287037 0 0 0 0.1875,0 c 12.44898,1.49858 24.98457,3.445 37.71875,5.25 a 9.5287037,9.5287037 0 0 0 10.78125,-8.21875 l 0.125,-0.96875 a 9.5287037,9.5287037 0 0 0 -8.09375,-10.65625 c -12.71841,-1.80276 -25.56956,-3.81209 -38.65625,-5.375 a 9.5287037,9.5287037 0 0 0 -0.34375,-0.0312 c -8.79246,-0.76417 -18.85423,-2.84489 -30.21875,-2.0625 -0.0427,0.003 -0.0823,-0.003 -0.125,0 -11.28807,0.67307 -20.5312,1.37328 -26.40625,-2.09375 -10.72248,-13.80214 -20.55771,-30.48123 -36.28125,-43.875 a 9.5287037,9.5287037 0 0 0 -6.125,-2.28125 z m 43.25,47.28125 c 0.0657,0.0834 0.0515,0.0317 0.125,0.125 -0.008,-0.01 -0.0235,0.01 -0.0312,0 -0.0308,-0.0389 -0.063,-0.0861 -0.0937,-0.125 z"
         id="path3127"
         style="font-size:medium;font-style:normal;font-variant:normal;font-weight:normal;font-stretch:normal;text-indent:0;text-align:start;text-decoration:none;line-height:normal;letter-spacing:normal;word-spacing:normal;text-transform:none;direction:ltr;block-progression:tb;writing-mode:lr-tb;text-anchor:start;baseline-shift:baseline;color:#000000;fill:#c8c800;fill-opacity:1;stroke:#000000;stroke-width:1px;stroke-opacity:1;marker:none;visibility:visible;display:inline;overflow:visible;enable-background:accumulate;font-family:Sans;-inkscape-font-specification:Sans"
         inkscape:original="M 478.1875 246.96875 L 477.53125 247.75 C 491.93691 260.02117 501.62286 276.5906 513.34375 291.40625 L 513.40625 291.46875 L 513.46875 291.5 C 523.53917 298.80509 536.46555 296.86253 547.8125 296.1875 C 557.37075 295.51176 566.88365 297.41421 576.5 298.25 L 576.5 298.21875 C 589.33725 299.75187 602.12237 301.74603 614.9375 303.5625 L 615.0625 302.59375 C 602.25625 300.77854 589.48567 298.78592 576.625 297.25 L 576.59375 297.25 C 567.05092 296.42061 557.48483 294.49928 547.75 295.1875 C 536.38721 295.86347 523.81 297.68772 514.15625 290.78125 C 514.14725 290.76985 514.1339 290.7613 514.125 290.75 C 502.47521 276.01751 492.75131 259.37463 478.1875 246.96875 z "
         inkscape:radius="9.527751"
         sodipodi:type="inkscape:offset" />
      <path
         inkscape:connector-curvature="0"
         id="path2999-4"
         d="m 477.85715,247.68361 c 14.49035,12.34331 24.20153,28.96069 35.89285,43.73897 9.87053,7.16009 22.64187,5.26406 34.02193,4.58706 9.64654,-0.68198 19.20045,1.21687 28.78004,2.04946 12.84896,1.53452 25.63732,3.52296 38.44801,5.3388"
         style="fill:none;stroke:#000000;stroke-width:1px;stroke-linecap:butt;stroke-linejoin:miter;stroke-opacity:1" />
    </g>
    <g
       id="g3948"
       transform="translate(-1.4285714,-10.213171)">
      <path
         d="m 596.375,348.875 a 20.957704,20.957704 0 0 0 -3.71875,0.46875 L 475.5,375.0625 a 20.957704,20.957704 0 0 0 3.03125,41.375 l 87.0625,6.09375 48.5,29.5 a 20.957704,20.957704 0 0 0 30.125,-26.21875 L 616.375,361.5 a 20.957704,20.957704 0 0 0 -20,-12.625 z"
         id="path3059"
         style="fill:#c8c800;fill-opacity:1;stroke:#000000;stroke-width:1px;stroke-linecap:butt;stroke-linejoin:miter;stroke-opacity:1"
         inkscape:original="M 597.15625 369.8125 L 480 395.53125 L 572.15625 401.96875 L 625 434.125 L 597.15625 369.8125 z "
         inkscape:radius="20.955608"
         sodipodi:type="inkscape:offset" />
      <path
         inkscape:connector-curvature="0"
         id="path2993-8"
         d="m 479.64286,393.79075 117.14286,-25.71428 27.85714,64.28571 -52.85714,-32.14286 z"
         style="fill:#c85900;fill-opacity:1;stroke:#000000;stroke-width:1px;stroke-linecap:butt;stroke-linejoin:miter;stroke-opacity:1" />
    </g>
    <g
       id="g4437"
       transform="translate(-6.2414458,0)">
      <path
         transform="matrix(0.14,0,0,0.15555556,455.71428,176.28044)"
         d="m 128.5625,111.90625 c -35.994637,0 -71.875,28.80205 -71.875,70.46875 0,41.6667 36.032467,70.4375 71.875,70.4375 35.84253,0 71.875,-28.7708 71.875,-70.4375 0,-41.6667 -35.88036,-70.46875 -71.875,-70.46875 z"
         id="path3079"
         style="fill:#c8c800;fill-opacity:1;stroke:#000000;stroke-width:4;stroke-miterlimit:4;stroke-opacity:1;stroke-dasharray:none"
         inkscape:original="M 128.5625 169.5 C 120.67272 169.5 114.28125 175.2742 114.28125 182.375 C 114.28125 189.4758 120.67272 195.21875 128.5625 195.21875 C 136.45228 195.21875 142.84375 189.4758 142.84375 182.375 C 142.84375 175.2742 136.45228 169.5 128.5625 169.5 z "
         inkscape:radius="57.603081"
         sodipodi:type="inkscape:offset" />
      <path
         transform="matrix(0.14,0,0,0.15555556,456.05913,176.22041)"
         d="m 142.85714,182.36218 c 0,7.10081 -6.39593,12.85715 -14.28571,12.85715 -7.88979,0 -14.28572,-5.75634 -14.28572,-12.85715 0,-7.1008 6.39593,-12.85714 14.28572,-12.85714 7.88978,0 14.28571,5.75634 14.28571,12.85714 z"
         sodipodi:ry="12.857142"
         sodipodi:rx="14.285714"
         sodipodi:cy="182.36218"
         sodipodi:cx="128.57143"
         id="path2985-2"
         style="stroke:#000000;stroke-width:4;stroke-miterlimit:4;stroke-opacity:1;stroke-dasharray:none"
         sodipodi:type="arc" />
    </g>
    <path
       style="fill:none;stroke:#000000;stroke-width:2;stroke-linecap:butt;stroke-linejoin:miter;stroke-miterlimit:4;stroke-opacity:1;stroke-dasharray:none;marker-end:url(#Arrow2Lend)"
       d="m 328.74341,362.36218 91.42858,0"
       id="path3954"
       inkscape:connector-curvature="0" />
    <path
       style="fill:none;stroke:#000000;stroke-width:2;stroke-linecap:butt;stroke-linejoin:miter;stroke-miterlimit:4;stroke-opacity:1;stroke-dasharray:none;marker-end:url(#Arrow2Lend)"
       d="m 328.74341,283.1117 91.42858,0"
       id="path3954-5"
       inkscape:connector-curvature="0" />
    <path
       style="fill:none;stroke:#000000;stroke-width:2;stroke-linecap:butt;stroke-linejoin:miter;stroke-miterlimit:4;stroke-opacity:1;stroke-dasharray:none;marker-end:url(#Arrow2Lend)"
       d="m 328.74341,208.1117 91.42858,0"
       id="path3954-1"
       inkscape:connector-curvature="0" />
  </g>
</svg>
