<?xml version="1.0" encoding="UTF-8" standalone="no"?>
<!-- Created with Inkscape (http://www.inkscape.org/) -->

<svg
   xmlns:dc="http://purl.org/dc/elements/1.1/"
   xmlns:cc="http://creativecommons.org/ns#"
   xmlns:rdf="http://www.w3.org/1999/02/22-rdf-syntax-ns#"
   xmlns:svg="http://www.w3.org/2000/svg"
   xmlns="http://www.w3.org/2000/svg"
   xmlns:sodipodi="http://sodipodi.sourceforge.net/DTD/sodipodi-0.dtd"
   xmlns:inkscape="http://www.inkscape.org/namespaces/inkscape"
   width="818.7851"
   height="320.18378"
   id="svg2"
   version="1.1"
   inkscape:version="0.48.2 r9819"
   sodipodi:docname="clip.svg">
  <defs
     id="defs4">
    <marker
       inkscape:stockid="Arrow2Lend"
       orient="auto"
       refY="0"
       refX="0"
       id="Arrow2Lend"
       style="overflow:visible">
      <path
         id="path3839"
         style="font-size:12px;fill-rule:evenodd;stroke-width:0.625;stroke-linejoin:round"
         d="M 8.7185878,4.0337352 -2.2072895,0.01601326 8.7185884,-4.0017078 c -1.7454984,2.3720609 -1.7354408,5.6174519 -6e-7,8.035443 z"
         transform="matrix(-1.1,0,0,-1.1,-1.1,0)"
         inkscape:connector-curvature="0" />
    </marker>
  </defs>
  <sodipodi:namedview
     id="base"
     pagecolor="#ffffff"
     bordercolor="#666666"
     borderopacity="1.0"
     inkscape:pageopacity="0.0"
     inkscape:pageshadow="2"
     inkscape:zoom="0.9690874"
     inkscape:cx="709.97755"
     inkscape:cy="142.40988"
     inkscape:document-units="px"
     inkscape:current-layer="layer1"
     showgrid="false"
     inkscape:window-width="1600"
     inkscape:window-height="881"
     inkscape:window-x="-4"
     inkscape:window-y="-4"
     inkscape:window-maximized="1"
     fit-margin-top="20"
     fit-margin-left="20"
     fit-margin-right="20"
     fit-margin-bottom="20" />
  <metadata
     id="metadata7">
    <rdf:RDF>
      <cc:Work
         rdf:about="">
        <dc:format>image/svg+xml</dc:format>
        <dc:type
           rdf:resource="http://purl.org/dc/dcmitype/StillImage" />
        <dc:title />
      </cc:Work>
    </rdf:RDF>
  </metadata>
  <g
     inkscape:label="Layer 1"
     inkscape:groupmode="layer"
     id="layer1"
     transform="translate(-47.230463,-198.26266)">
    <g
       id="g4279">
      <path
         sodipodi:nodetypes="cccccccccccc"
         inkscape:connector-curvature="0"
         id="path2985"
         d="m 85.714286,372.36218 c 0.75915,-21.67405 65.817814,-97.11283 115.276994,-130.2526 8.34635,-5.86329 18.00657,-10.83926 28.52403,-8.60074 26.31349,4.11851 42.39632,28.47019 52.66145,50.89695 20.96898,47.89103 56.35161,90.86561 62.18846,144.35473 3.65407,15.61139 -3.0403,33.29856 -18.35626,39.79677 -18.09736,8.36356 -38.24862,10.61441 -57.3688,15.67141 -24.22123,4.36835 -48.97581,6.00148 -73.54356,4.29586 -31.2812,-0.36435 -60.53897,1.73587 -70.56491,-24.84675 -4.46211,-10.80311 0.9099,-21.63087 2.64109,-32.26173 1.76946,-18.28015 -16.7382,-27.58672 -29.142962,-36.83559 -6.955256,-5.46061 -15.650416,-12.3802 -12.315532,-22.21831 z"
         style="opacity:0.7375;fill:#be9000;fill-opacity:1;stroke:#000000;stroke-width:1px;stroke-linecap:butt;stroke-linejoin:miter;stroke-opacity:1" />
      <g
         id="g3778">
        <path
           style="fill:none;stroke:#000000;stroke-width:2.5;stroke-linecap:butt;stroke-linejoin:miter;stroke-miterlimit:4;stroke-opacity:1;stroke-dasharray:none"
           d="m 68.480463,445.06841 c 18.886987,-6.66701 31.937907,-24.90516 52.731817,-27.14042 20.10828,-2.99193 38.38696,-8.55588 54.50807,-18.77859 15.66226,-7.32349 25.45506,-23.70745 43.26946,-27.45908 17.11578,-6.55878 34.49566,-14.56358 44.69416,-30.59178 14.25164,-15.71339 31.30519,-28.66487 43.47737,-46.31634 11.01423,-15.63251 33.57834,-13.85504 43.51883,-31.82667"
           id="path3766"
           inkscape:connector-curvature="0" />
        <path
           style="fill:none;stroke:#000000;stroke-width:2.5;stroke-linecap:butt;stroke-linejoin:miter;stroke-miterlimit:4;stroke-opacity:1;stroke-dasharray:none"
           d="m 236.29522,363.79489 c -5.00237,-27.71838 -17.7613,-56.11563 -9.60277,-84.39041 10.94761,-19.61075 21.78561,-39.07461 31.23113,-59.47367 l 0.94762,-0.41815 0,0.54851"
           id="path3768"
           inkscape:connector-curvature="0" />
        <path
           style="fill:none;stroke:#000000;stroke-width:2.5;stroke-linecap:butt;stroke-linejoin:miter;stroke-miterlimit:4;stroke-opacity:1;stroke-dasharray:none"
           d="m 190.39074,389.381 c 24.12699,-0.0185 47.80449,6.75261 70.17279,15.1262 27.20273,15.98559 60.15145,13.95152 90.57369,14.03331 23.12083,0.94671 38.37037,-18.62575 58.68186,-25.44056 7.00707,-0.2187 13.16848,-2.50163 18.37195,-7.48162"
           id="path3770"
           inkscape:connector-curvature="0" />
      </g>
    </g>
    <g
       id="g4273">
      <path
         sodipodi:nodetypes="cccccccccccc"
         inkscape:connector-curvature="0"
         id="path2985-1"
         d="m 585.88722,381.12014 c 0.75915,-21.67405 65.81781,-97.11283 115.277,-130.2526 8.34635,-5.86329 18.00657,-10.83926 28.52403,-8.60074 26.31349,4.11851 42.39632,28.47019 52.66145,50.89695 20.96898,47.89103 56.35161,90.86561 62.18846,144.35473 3.65407,15.61139 -3.0403,33.29856 -18.35626,39.79677 -18.09736,8.36356 -38.24862,10.61441 -57.3688,15.67141 -24.22123,4.36835 -48.97581,6.00148 -73.54356,4.29586 -31.28121,-0.36435 -60.53898,1.73587 -70.56492,-24.84675 -4.46211,-10.80311 0.9099,-21.63087 2.64109,-32.26173 1.76946,-18.28015 -16.7382,-27.58672 -29.14296,-36.83559 -6.95526,-5.46061 -15.65042,-12.3802 -12.31553,-22.21831 z"
         style="opacity:0.7375;fill:#be9000;fill-opacity:1;stroke:#000000;stroke-width:1px;stroke-linecap:butt;stroke-linejoin:miter;stroke-opacity:1" />
      <path
         sodipodi:nodetypes="ccccc"
         inkscape:connector-curvature="0"
         id="path3766-4"
         d="m 626.57704,430.97526 c 20.10828,-2.99193 34.25937,-7.52398 50.38048,-17.74669 15.66226,-7.32349 25.45506,-23.70745 43.26946,-27.45908 17.11578,-6.55878 34.49566,-14.56358 44.69416,-30.59178 10.39866,-11.46522 22.28902,-21.46005 32.68647,-32.88307"
         style="fill:none;stroke:#000000;stroke-width:2.5;stroke-linecap:butt;stroke-linejoin:miter;stroke-miterlimit:4;stroke-opacity:1;stroke-dasharray:none" />
      <path
         sodipodi:nodetypes="ccc"
         inkscape:connector-curvature="0"
         id="path3770-9"
         d="m 691.62791,403.46017 c 24.12699,-0.0185 47.80449,6.75261 70.17279,15.1262 24.90278,14.63403 54.62099,14.16666 82.80803,14.04577"
         style="fill:none;stroke:#000000;stroke-width:2.5;stroke-linecap:butt;stroke-linejoin:miter;stroke-miterlimit:4;stroke-opacity:1;stroke-dasharray:none" />
      <path
         sodipodi:nodetypes="ccc"
         inkscape:connector-curvature="0"
         id="path3768-0"
         d="m 737.53239,377.87406 c -5.00237,-27.71838 -17.7613,-56.11563 -9.60277,-84.39041 7.84506,-14.05306 15.63383,-28.03069 22.89423,-42.33108"
         style="fill:none;stroke:#000000;stroke-width:2.5;stroke-linecap:butt;stroke-linejoin:miter;stroke-miterlimit:4;stroke-opacity:1;stroke-dasharray:none" />
    </g>
    <path
       style="fill:none;stroke:#000000;stroke-width:3;stroke-linecap:butt;stroke-linejoin:miter;stroke-miterlimit:4;stroke-opacity:1;stroke-dasharray:none;marker-end:url(#Arrow2Lend)"
       d="m 391.67734,327.5408 174.53565,0"
       id="path3813"
       inkscape:connector-curvature="0" />
  </g>
</svg>
