<?xml version="1.0" encoding="UTF-8" standalone="no"?>
<!-- Created with Inkscape (http://www.inkscape.org/) -->

<svg
   xmlns:dc="http://purl.org/dc/elements/1.1/"
   xmlns:cc="http://creativecommons.org/ns#"
   xmlns:rdf="http://www.w3.org/1999/02/22-rdf-syntax-ns#"
   xmlns:svg="http://www.w3.org/2000/svg"
   xmlns="http://www.w3.org/2000/svg"
   xmlns:sodipodi="http://sodipodi.sourceforge.net/DTD/sodipodi-0.dtd"
   xmlns:inkscape="http://www.inkscape.org/namespaces/inkscape"
   width="758.59363"
   height="379.71768"
   id="svg2"
   version="1.1"
   inkscape:version="0.48.2 r9819"
   sodipodi:docname="New document 1">
  <defs
     id="defs4" />
  <sodipodi:namedview
     id="base"
     pagecolor="#ffffff"
     bordercolor="#666666"
     borderopacity="1.0"
     inkscape:pageopacity="0.0"
     inkscape:pageshadow="2"
     inkscape:zoom="1.5634194"
     inkscape:cx="379.29681"
     inkscape:cy="189.85884"
     inkscape:document-units="px"
     inkscape:current-layer="layer1"
     showgrid="false"
     fit-margin-top="0"
     fit-margin-left="0"
     fit-margin-right="0"
     fit-margin-bottom="0"
     inkscape:window-width="1600"
     inkscape:window-height="881"
     inkscape:window-x="-4"
     inkscape:window-y="-4"
     inkscape:window-maximized="1" />
  <metadata
     id="metadata7">
    <rdf:RDF>
      <cc:Work
         rdf:about="">
        <dc:format>image/svg+xml</dc:format>
        <dc:type
           rdf:resource="http://purl.org/dc/dcmitype/StillImage" />
        <dc:title></dc:title>
      </cc:Work>
    </rdf:RDF>
  </metadata>
  <g
     inkscape:label="Layer 1"
     inkscape:groupmode="layer"
     id="layer1"
     transform="translate(34.85196,-100.70775)">
    <g
       id="g6992"
       transform="translate(-163.36246,112.63803)">
      <path
         inkscape:connector-curvature="0"
         id="path4038"
         d="m 447.09901,314.41241 c -7.38059,0.0522 -15.23387,0.36365 -23.0625,0.25 -4.24318,-0.0616 -8.43595,-0.24846 -12.5,-0.6875 -2.03202,-0.21952 -4.05372,-0.51779 -6,-0.875 -1.94628,-0.35721 -3.82302,-0.78872 -5.65625,-1.3125 -12.9829,-3.7094 -25.46674,-8.24224 -38,-11.84375 -3.13331,-0.90038 -6.25635,-1.74283 -9.40625,-2.5 -3.1499,-0.75717 -6.31563,-1.40939 -9.5,-1.96875 -3.18437,-0.55936 -6.38829,-1.03677 -9.625,-1.34375 -3.23671,-0.30698 -6.50557,-0.46875 -9.8125,-0.46875 -2.18229,0 -4.34556,0.20166 -6.46875,0.53125 -2.12319,0.32959 -4.22395,0.81194 -6.28125,1.375 -2.53483,0.69375 -4.88921,1.64595 -7.3125,2.53125 l 0,68.6875 143.625,0 0,-52.375 z"
         style="opacity:0.5;fill:#00ff00;fill-opacity:1;stroke:#000000;stroke-width:2;stroke-miterlimit:4;stroke-opacity:1;stroke-dasharray:none" />
      <path
         inkscape:connector-curvature="0"
         id="path4040"
         d="m 303.47401,243.84991 0,54.25 c 2.42329,-0.8853 4.77767,-1.8375 7.3125,-2.53125 2.0573,-0.56306 4.15806,-1.04541 6.28125,-1.375 2.12319,-0.32959 4.28646,-0.53125 6.46875,-0.53125 3.30693,0 6.57579,0.16177 9.8125,0.46875 3.23671,0.30698 6.44063,0.78439 9.625,1.34375 3.18437,0.55936 6.3501,1.21158 9.5,1.96875 3.1499,0.75717 6.27294,1.59962 9.40625,2.5 12.53326,3.60151 25.0171,8.13435 38,11.84375 1.83323,0.52378 3.70997,0.95529 5.65625,1.3125 1.94628,0.35721 3.96798,0.65548 6,0.875 4.06405,0.43904 8.25682,0.6259 12.5,0.6875 7.82863,0.11365 15.68191,-0.19784 23.0625,-0.25 l 0,-70.5625 -143.625,0 z"
         style="opacity:0.50099996;fill:#ff0000;fill-opacity:1;stroke:#000000;stroke-width:2;stroke-miterlimit:4;stroke-opacity:1;stroke-dasharray:none" />
      <path
         inkscape:connector-curvature="0"
         id="path4030"
         d="m 363.53651,243.84991 c 1.27397,1.89322 2.67784,3.85567 3.34375,5.1875 1.74104,3.48209 3.34906,6.51933 4.53125,9.75 0.59109,1.61534 1.07174,3.26264 1.40625,5.0625 0.33451,1.79986 0.53125,3.75696 0.53125,5.90625 0,1.82026 -0.16832,3.36693 -0.40625,4.78125 -0.23793,1.41432 -0.55306,2.69307 -0.9375,3.9375 -0.76887,2.48885 -1.75611,4.86818 -2.5625,8.09375 -0.52694,2.10775 -0.88659,3.9964 -1.0625,5.78125 -0.17591,1.78485 -0.17039,3.4738 0.0937,5.09375 0.26414,1.61995 0.80053,3.19945 1.59375,4.8125 0.79322,1.61305 1.86993,3.23585 3.28125,5 1.08965,1.36206 2.0662,3.07426 2.96875,4.96875 0.90255,1.89449 1.72748,3.98967 2.53125,6.125 0.80377,2.13533 1.58171,4.32166 2.375,6.40625 0.79329,2.08459 1.59762,4.07024 2.46875,5.8125 0.76083,1.52166 1.30223,3.1002 1.6875,4.75 0.38527,1.6498 0.61672,3.34741 0.75,5.09375 0.26656,3.49268 0.15625,7.15444 0.15625,10.84375 0,1.29141 -0.12227,2.4257 -0.3125,3.40625 -0.19023,0.98055 -0.47008,1.81747 -0.8125,2.5625 -0.34242,0.74503 -0.73091,1.38391 -1.1875,1.96875 -0.45659,0.58484 -0.96727,1.12501 -1.5,1.625 -1.06546,0.99999 -2.23316,1.88737 -3.375,3 -0.57092,0.55631 -1.15453,1.17752 -1.6875,1.875 -0.24511,0.32077 -0.45628,0.73149 -0.6875,1.09375 l 70.375,0 0,-122.9375 -83.5625,0 z"
         style="opacity:0.5;fill:#0000ff;fill-opacity:1;stroke:#000000;stroke-width:2;stroke-miterlimit:4;stroke-opacity:1;stroke-dasharray:none" />
      <path
         inkscape:connector-curvature="0"
         id="path4028"
         d="m 363.53651,243.84991 -60.0625,0 0,122.9375 73.25,0 c 0.23122,-0.36226 0.44239,-0.77298 0.6875,-1.09375 0.53297,-0.69748 1.11658,-1.31869 1.6875,-1.875 1.14184,-1.11263 2.30954,-2.00001 3.375,-3 0.53273,-0.49999 1.04341,-1.04016 1.5,-1.625 0.45659,-0.58484 0.84508,-1.22372 1.1875,-1.96875 0.34242,-0.74503 0.62227,-1.58195 0.8125,-2.5625 0.19023,-0.98055 0.3125,-2.11484 0.3125,-3.40625 0,-3.68931 0.11031,-7.35107 -0.15625,-10.84375 -0.13328,-1.74634 -0.36473,-3.44395 -0.75,-5.09375 -0.38527,-1.6498 -0.92667,-3.22834 -1.6875,-4.75 -0.87113,-1.74226 -1.67546,-3.72791 -2.46875,-5.8125 -0.79329,-2.08459 -1.57123,-4.27092 -2.375,-6.40625 -0.80377,-2.13533 -1.6287,-4.23051 -2.53125,-6.125 -0.90255,-1.89449 -1.8791,-3.60669 -2.96875,-4.96875 -1.41132,-1.76415 -2.48803,-3.38695 -3.28125,-5 -0.79322,-1.61305 -1.32961,-3.19255 -1.59375,-4.8125 -0.26414,-1.61995 -0.26966,-3.3089 -0.0937,-5.09375 0.17591,-1.78485 0.53556,-3.6735 1.0625,-5.78125 0.80639,-3.22557 1.79363,-5.6049 2.5625,-8.09375 0.38444,-1.24443 0.69957,-2.52318 0.9375,-3.9375 0.23793,-1.41432 0.40625,-2.96099 0.40625,-4.78125 0,-2.14929 -0.19674,-4.10639 -0.53125,-5.90625 -0.33451,-1.79986 -0.81516,-3.44716 -1.40625,-5.0625 -1.18219,-3.23067 -2.79021,-6.26791 -4.53125,-9.75 -0.66591,-1.33183 -2.06978,-3.29428 -3.34375,-5.1875 z"
         style="opacity:0.5;fill:#ffff00;fill-opacity:1;stroke:#000000;stroke-width:2;stroke-miterlimit:4;stroke-opacity:1;stroke-dasharray:none" />
    </g>
    <path
       inkscape:connector-curvature="0"
       style="fill:none;stroke:#000000;stroke-width:1;stroke-linecap:butt;stroke-linejoin:miter;stroke-miterlimit:4;stroke-opacity:1;stroke-dasharray:1, 3;stroke-dashoffset:0"
       d="m -34.35196,289.07475 c 760.33851,0 757.59361,0 757.59361,0"
       id="path3258" />
    <rect
       style="opacity:0.26086958;fill:#64bf4d;fill-opacity:1;stroke:#000000;stroke-width:1.59481561;stroke-miterlimit:4;stroke-opacity:1;stroke-dasharray:none;stroke-dashoffset:0"
       id="rect3262"
       width="220.47179"
       height="17.423468"
       x="366.5466"
       y="368.29474" />
    <text
       xml:space="preserve"
       style="font-size:12px;font-style:normal;font-weight:normal;fill:#000000;fill-opacity:1;stroke:none;font-family:Bitstream Vera Sans"
       x="374.29648"
       y="381.91595"
       id="text3264"><tspan
         sodipodi:role="line"
         id="tspan3266"
         x="374.29648"
         y="381.91595">A_ID      A_Type      B_ID       B_Type</tspan></text>
    <path
       inkscape:connector-curvature="0"
       style="fill:#ffff00;fill-opacity:1;stroke:#000000;stroke-width:2;stroke-miterlimit:4;stroke-opacity:1;stroke-dasharray:none"
       d="m 57.20031,135.58465 -60.0625,0 0,122.9375 73.25,0 c 0.23122,-0.36226 0.44239,-0.77298 0.6875,-1.09375 0.53297,-0.69748 1.11658,-1.31869 1.6875,-1.875 1.14184,-1.11263 2.30954,-2.00001 3.375,-3 0.53273,-0.49999 1.04341,-1.04016 1.5,-1.625 0.45659,-0.58484 0.84508,-1.22372 1.1875,-1.96875 0.34242,-0.74503 0.62227,-1.58195 0.8125,-2.5625 0.19023,-0.98055 0.3125,-2.11484 0.3125,-3.40625 0,-3.68931 0.11031,-7.35107 -0.15625,-10.84375 -0.13328,-1.74634 -0.36473,-3.44395 -0.75,-5.09375 -0.38527,-1.6498 -0.92667,-3.22834 -1.6875,-4.75 -0.87113,-1.74226 -1.67546,-3.72791 -2.46875,-5.8125 -0.79329,-2.08459 -1.57123,-4.27092 -2.375,-6.40625 -0.80377,-2.13533 -1.6287,-4.23051 -2.53125,-6.125 -0.90255,-1.89449 -1.8791,-3.60669 -2.96875,-4.96875 -1.41132,-1.76415 -2.48803,-3.38695 -3.28125,-5 -0.79322,-1.61305 -1.32961,-3.19255 -1.59375,-4.8125 -0.26414,-1.61995 -0.26966,-3.3089 -0.0937,-5.09375 0.17591,-1.78485 0.53556,-3.6735 1.0625,-5.78125 0.80639,-3.22557 1.79363,-5.6049 2.5625,-8.09375 0.38444,-1.24443 0.69957,-2.52318 0.9375,-3.9375 0.23793,-1.41432 0.40625,-2.96099 0.40625,-4.78125 0,-2.14929 -0.19674,-4.1064 -0.53125,-5.90625 -0.33451,-1.79986 -0.81516,-3.44717 -1.40625,-5.0625 -1.18219,-3.23067 -2.79021,-6.26791 -4.53125,-9.75 -0.66591,-1.33183 -2.06978,-3.29428 -3.34375,-5.1875 z"
       id="path4015" />
    <path
       inkscape:connector-curvature="0"
       style="fill:#0000ff;fill-opacity:1;stroke:#000000;stroke-width:2;stroke-miterlimit:4;stroke-opacity:1;stroke-dasharray:none"
       d="m 57.20031,135.58465 c 1.27397,1.89322 2.67784,3.85567 3.34375,5.1875 1.74104,3.48209 3.34906,6.51933 4.53125,9.75 0.59109,1.61533 1.07174,3.26264 1.40625,5.0625 0.33451,1.79985 0.53125,3.75696 0.53125,5.90625 0,1.82026 -0.16832,3.36693 -0.40625,4.78125 -0.23793,1.41432 -0.55306,2.69307 -0.9375,3.9375 -0.76887,2.48885 -1.75611,4.86818 -2.5625,8.09375 -0.52694,2.10775 -0.88659,3.9964 -1.0625,5.78125 -0.17591,1.78485 -0.17039,3.4738 0.0937,5.09375 0.26414,1.61995 0.80053,3.19945 1.59375,4.8125 0.79322,1.61305 1.86993,3.23585 3.28125,5 1.08965,1.36206 2.0662,3.07426 2.96875,4.96875 0.90255,1.89449 1.72748,3.98967 2.53125,6.125 0.80377,2.13533 1.58171,4.32166 2.375,6.40625 0.79329,2.08459 1.59762,4.07024 2.46875,5.8125 0.76083,1.52166 1.30223,3.1002 1.6875,4.75 0.38527,1.6498 0.61672,3.34741 0.75,5.09375 0.26656,3.49268 0.15625,7.15444 0.15625,10.84375 0,1.29141 -0.12227,2.4257 -0.3125,3.40625 -0.19023,0.98055 -0.47008,1.81747 -0.8125,2.5625 -0.34242,0.74503 -0.73091,1.38391 -1.1875,1.96875 -0.45659,0.58484 -0.96727,1.12501 -1.5,1.625 -1.06546,0.99999 -2.23316,1.88737 -3.375,3 -0.57092,0.55631 -1.15453,1.17752 -1.6875,1.875 -0.24511,0.32077 -0.45628,0.73149 -0.6875,1.09375 l 70.375,0 0,-122.9375 -83.5625,0 z"
       id="rect3031" />
    <path
       inkscape:connector-curvature="0"
       style="fill:#00ff00;fill-opacity:1;stroke:#000000;stroke-width:2;stroke-miterlimit:4;stroke-opacity:1;stroke-dasharray:none"
       d="m 541.70031,207.27215 c -7.38059,0.0522 -15.23387,0.36365 -23.0625,0.25 -4.24318,-0.0616 -8.43595,-0.24847 -12.5,-0.6875 -2.03202,-0.21952 -4.05372,-0.51779 -6,-0.875 -1.94628,-0.35721 -3.82302,-0.78872 -5.65625,-1.3125 -12.9829,-3.7094 -25.46674,-8.24224 -38,-11.84375 -3.13331,-0.90038 -6.25635,-1.74284 -9.40625,-2.5 -3.1499,-0.75717 -6.31563,-1.40939 -9.5,-1.96875 -3.18437,-0.55936 -6.38829,-1.03677 -9.625,-1.34375 -3.23671,-0.30698 -6.50557,-0.46875 -9.8125,-0.46875 -2.18229,0 -4.34556,0.20166 -6.46875,0.53125 -2.12319,0.32959 -4.22395,0.81194 -6.28125,1.375 -2.53483,0.69375 -4.88921,1.64595 -7.3125,2.53125 l 0,68.6875 143.625,0 0,-52.375 z"
       id="path4020" />
    <path
       inkscape:connector-curvature="0"
       style="fill:#ff0000;fill-opacity:1;stroke:#000000;stroke-width:2;stroke-miterlimit:4;stroke-opacity:1;stroke-dasharray:none"
       d="m 398.07531,136.70965 0,54.25 c 2.42329,-0.8853 4.77767,-1.8375 7.3125,-2.53125 2.0573,-0.56306 4.15806,-1.04541 6.28125,-1.375 2.12319,-0.32959 4.28646,-0.53125 6.46875,-0.53125 3.30693,0 6.57579,0.16177 9.8125,0.46875 3.23671,0.30698 6.44063,0.78439 9.625,1.34375 3.18437,0.55936 6.3501,1.21158 9.5,1.96875 3.1499,0.75716 6.27294,1.59962 9.40625,2.5 12.53326,3.60151 25.0171,8.13435 38,11.84375 1.83323,0.52378 3.70997,0.95529 5.65625,1.3125 1.94628,0.35721 3.96798,0.65548 6,0.875 4.06405,0.43903 8.25682,0.6259 12.5,0.6875 7.82863,0.11365 15.68191,-0.19784 23.0625,-0.25 l 0,-70.5625 -143.625,0 z"
       id="rect4009" />
    <path
       inkscape:connector-curvature="0"
       style="fill:none;stroke:#000000;stroke-width:2;stroke-miterlimit:4;stroke-opacity:1;stroke-dasharray:none"
       d="m 283.73655,427.05044 c -7.38059,0.0522 -15.23387,0.36365 -23.0625,0.25 -4.24318,-0.0616 -8.43595,-0.24847 -12.5,-0.6875 -2.03202,-0.21952 -4.05372,-0.51779 -6,-0.875 -1.94628,-0.35721 -3.82302,-0.78872 -5.65625,-1.3125 -12.9829,-3.7094 -25.46674,-8.24224 -38,-11.84375 -3.13331,-0.90038 -6.25635,-1.74284 -9.40625,-2.5 -3.1499,-0.75717 -6.31563,-1.40939 -9.5,-1.96875 -3.18437,-0.55936 -6.38829,-1.03677 -9.625,-1.34375 -3.23671,-0.30698 -6.50557,-0.46875 -9.8125,-0.46875 -2.18229,0 -4.34556,0.20166 -6.46875,0.53125 -2.12319,0.32959 -4.22395,0.81194 -6.28125,1.375 -2.53483,0.69375 -4.88921,1.64595 -7.3125,2.53125 l 0,68.6875 143.625,0 0,-52.375 z"
       id="path6990" />
    <path
       inkscape:connector-curvature="0"
       style="fill:none;stroke:#000000;stroke-width:2;stroke-miterlimit:4;stroke-opacity:1;stroke-dasharray:none"
       d="m 140.11106,356.16492 0,54.25 c 2.42329,-0.8853 4.77767,-1.8375 7.3125,-2.53125 2.0573,-0.56306 4.15806,-1.04541 6.28125,-1.375 2.12319,-0.32959 4.28646,-0.53125 6.46875,-0.53125 3.30693,0 6.57579,0.16177 9.8125,0.46875 3.23671,0.30698 6.44063,0.78439 9.625,1.34375 3.18437,0.55936 6.3501,1.21158 9.5,1.96875 3.1499,0.75716 6.27294,1.59962 9.40625,2.5 12.53326,3.60151 25.0171,8.13435 38,11.84375 1.83323,0.52378 3.70997,0.95529 5.65625,1.3125 1.94628,0.35721 3.96798,0.65548 6,0.875 4.06405,0.43903 8.25682,0.6259 12.5,0.6875 7.82863,0.11365 15.68191,-0.19784 23.0625,-0.25 l 0,-70.5625 -143.625,0 z"
       id="path6998" />
    <rect
       style="opacity:0.26086958;fill:#64bf4d;fill-opacity:1;stroke:#000000;stroke-width:1.17648637;stroke-miterlimit:4;stroke-opacity:1;stroke-dasharray:none;stroke-dashoffset:0"
       id="rect3214"
       width="117.16585"
       height="17.841827"
       x="170.13165"
       y="144.12843" />
    <text
       xml:space="preserve"
       style="font-size:12px;font-style:normal;font-weight:normal;fill:#000000;fill-opacity:1;stroke:none;font-family:Bitstream Vera Sans"
       x="178.09073"
       y="157.95883"
       id="text3216"><tspan
         sodipodi:role="line"
         id="tspan3218"
         x="178.09073"
         y="157.95883">ID               Type        </tspan></text>
    <text
       xml:space="preserve"
       style="font-size:12px;font-style:normal;font-weight:normal;fill:#000000;fill-opacity:1;stroke:none;font-family:Bitstream Vera Sans"
       x="178.55106"
       y="184.15279"
       id="text3220"><tspan
         sodipodi:role="line"
         id="tspan3222"
         x="178.55106"
         y="184.15279">1                   A </tspan></text>
    <text
       id="text7969"
       y="204.14316"
       x="178.55106"
       style="font-size:12px;font-style:normal;font-weight:normal;fill:#000000;fill-opacity:1;stroke:none;font-family:Bitstream Vera Sans"
       xml:space="preserve"><tspan
         y="204.14316"
         x="178.55106"
         id="tspan7971"
         sodipodi:role="line">2                   B</tspan></text>
    <rect
       style="opacity:0.26086958;fill:#64bf4d;fill-opacity:1;stroke:#000000;stroke-width:1.18529403;stroke-miterlimit:4;stroke-opacity:1;stroke-dasharray:none;stroke-dashoffset:0"
       id="rect7978"
       width="118.92671"
       height="17.841827"
       x="570.44476"
       y="144.12843" />
    <text
       xml:space="preserve"
       style="font-size:12px;font-style:normal;font-weight:normal;fill:#000000;fill-opacity:1;stroke:none;font-family:Bitstream Vera Sans"
       x="578.40387"
       y="157.95883"
       id="text7980"><tspan
         sodipodi:role="line"
         id="tspan7982"
         x="578.40387"
         y="157.95883">ID                Type       </tspan></text>
    <text
       xml:space="preserve"
       style="font-size:12px;font-style:normal;font-weight:normal;fill:#000000;fill-opacity:1;stroke:none;font-family:Bitstream Vera Sans"
       x="578.8642"
       y="184.15279"
       id="text7984"><tspan
         sodipodi:role="line"
         id="tspan7986"
         x="578.8642"
         y="184.15279">1                    A </tspan></text>
    <text
       id="text7988"
       y="204.14314"
       x="578.8642"
       style="font-size:12px;font-style:normal;font-weight:normal;fill:#000000;fill-opacity:1;stroke:none;font-family:Bitstream Vera Sans"
       xml:space="preserve"><tspan
         y="204.14314"
         x="578.8642"
         id="tspan7990"
         sodipodi:role="line">2                    B</tspan></text>
    <text
       xml:space="preserve"
       style="font-size:40px;font-style:normal;font-weight:normal;line-height:125%;letter-spacing:0px;word-spacing:0px;fill:#000000;fill-opacity:1;stroke:none;font-family:Sans"
       x="-5.9092717"
       y="110.90013"
       id="text3134"
       sodipodi:linespacing="125%"><tspan
         sodipodi:role="line"
         id="tspan3136"
         x="-5.9092717"
         y="110.90013"
         style="font-size:14px">First input feature collection</tspan></text>
    <text
       xml:space="preserve"
       style="font-size:40px;font-style:normal;font-weight:normal;line-height:125%;letter-spacing:0px;word-spacing:0px;fill:#000000;fill-opacity:1;stroke:none;font-family:Sans"
       x="395.39911"
       y="110.90013"
       id="text3134-4"
       sodipodi:linespacing="125%"><tspan
         sodipodi:role="line"
         id="tspan3136-8"
         x="395.39911"
         y="110.90013"
         style="font-size:14px">Second input feature collection</tspan></text>
    <g
       id="g3198"
       transform="translate(34,32)">
      <text
         id="text3268"
         y="372.10992"
         x="343.41464"
         style="font-size:12px;font-style:normal;font-weight:normal;fill:#000000;fill-opacity:1;stroke:none;font-family:Bitstream Vera Sans"
         xml:space="preserve"><tspan
           y="372.10992"
           x="343.41464"
           id="tspan3270"
           sodipodi:role="line">  1               A              1               A </tspan></text>
      <text
         id="text3268-8"
         y="390.40958"
         x="343.41464"
         style="font-size:12px;font-style:normal;font-weight:normal;fill:#000000;fill-opacity:1;stroke:none;font-family:Bitstream Vera Sans"
         xml:space="preserve"><tspan
           y="390.40958"
           x="343.41464"
           id="tspan3270-2"
           sodipodi:role="line">  1               A              2               B </tspan></text>
      <text
         id="text3268-4"
         y="408.70923"
         x="343.41464"
         style="font-size:12px;font-style:normal;font-weight:normal;fill:#000000;fill-opacity:1;stroke:none;font-family:Bitstream Vera Sans"
         xml:space="preserve"><tspan
           y="408.70923"
           x="343.41464"
           id="tspan3270-5"
           sodipodi:role="line">  2               B              1               A </tspan></text>
      <text
         id="text3268-5"
         y="427.00894"
         x="343.41464"
         style="font-size:12px;font-style:normal;font-weight:normal;fill:#000000;fill-opacity:1;stroke:none;font-family:Bitstream Vera Sans"
         xml:space="preserve"><tspan
           y="427.00894"
           x="343.41464"
           id="tspan3270-1"
           sodipodi:role="line">  2               B              2               B </tspan></text>
    </g>
    <text
       xml:space="preserve"
       style="font-size:40px;font-style:normal;font-weight:normal;line-height:125%;letter-spacing:0px;word-spacing:0px;fill:#000000;fill-opacity:1;stroke:none;font-family:Sans"
       x="136.34772"
       y="327.91367"
       id="text3134-7"
       sodipodi:linespacing="125%"><tspan
         sodipodi:role="line"
         id="tspan3136-1"
         x="136.34772"
         y="327.91367"
         style="font-size:14px">Output feature collection</tspan></text>
  </g>
</svg>
